<svg height="257" preserveAspectRatio="xMidYMid meet" viewBox="0 0 820 351" width="600" xmlns="http://www.w3.org/2000/svg"><g fill="none" stroke="#021706"><path d="m756.09 11.4h59.93v329.12h-59.93z"/><path d="m818 10.58h-63.89"/><path d="m818 341.02h-63.89"/><path d="m343.02 341.34h-66.02l-159.21-.82c-33.34-.76-56.79-4.7-70.33-11.81-20.32-10.67-33.01-52.82-39.61-76.19-4.4-15.57-6.32-41.09-5.76-76.56"/><path d="m39.24 175.96c1.69-31.57 2.54-50.41 2.54-56.5 0-6.1-.44-8.84-1.32-8.24-7.25-.1-12.23 2.91-14.94 9-2.7 6.1-4.06 24.68-4.06 55.74"/><path d="m112.6 11.4c-17.42 8.55-29.7 15.7-36.83 21.46s-22.52 32.76-46.18 81.01"/><path d="m756.09 78.57-23.66-8.63c-60.6-14.56-103.09-23.03-127.47-25.4-24.37-2.37-58.06-3.22-101.06-2.54l-206.68 2.54-33.01 3.56c-46.55 8.46-77.62 14.39-93.19 17.77-13.63 2.97-43.72 11.28-90.27 24.94-8.53 2.5-16.83 5.73-24.82 9.64-3.41 1.67-11.94 5.86-25.58 12.54"/><path d="m39.24 175.96c1.69 31.57 2.54 50.4 2.54 56.5 0 6.09-.44 8.84-1.32 8.24-7.25.09-12.23-2.91-14.94-9-2.7-6.1-4.06-24.68-4.06-55.74"/><path d="m112.6 340.9c-17.42-8.55-29.7-15.71-36.83-21.46-7.13-5.76-22.52-32.76-46.18-81.02"/><path d="m756.09 272.85-23.66 8.63c-60.6 14.56-103.09 23.03-127.47 25.4-24.37 2.37-58.06 3.21-101.06 2.54l-206.68-2.54-33.01-3.56c-46.55-8.46-77.62-14.39-93.19-17.77-13.63-2.97-43.72-11.28-90.27-24.94-8.53-2.5-16.83-5.73-24.82-9.64-3.41-1.68-11.94-5.86-25.58-12.55"/><path d="m343.02 10.58h-66.02l-159.21.82c-33.34.76-56.79 4.7-70.33 11.81-20.32 10.67-33.01 52.82-39.61 76.19-4.4 15.57-6.32 41.09-5.76 76.56"/><path d="m328.04 20.52 26.92-17.27-9.91 29.71h-4.57l-7.11-4.06-9.39 7.87-9.65-1.52-2.29-2.29z"/><path d="m328.3 330.34 26.91 17.27-9.9-29.72h-4.57l-7.11 4.07-9.4-7.88-9.65 1.53-2.28 2.28z"/><path d="m300.36 55.11c-3.04-1.02-7.44-2.04-13.2-3.05-5.75-1.02-11.19-1.02-16.29 0-33.83 4.74-56.67 8.26-68.52 10.57s-35.58 8.44-71.19 18.38l-93.58 28.44"/><path d="m301.7 296.6c-3.05 1.02-7.45 2.04-13.21 3.05-5.75 1.02-11.18 1.02-16.29 0-33.83-4.74-56.67-8.26-68.52-10.57s-35.58-8.44-71.19-18.38l-93.58-28.44"/><path d="m445.6 41.78-151.33-1.4c-117.82 1.01-181.3 3.98-190.44 8.89s-19.13 19.57-29.96 44c-6.09 11.47-10.16 23.29-12.19 35.48s-3.55 27.93-4.56 47.21"/><path d="m445.6 310.14-151.33 1.4c-117.82-1.01-181.3-3.98-190.44-8.89s-19.13-19.57-29.96-44c-6.09-11.47-10.16-23.3-12.19-35.49s-3.55-27.92-4.56-47.2"/><path d="m246.53 51.3c-33.51 1.52-55.5 2.62-65.96 3.3-15.7 1.01-79.78 5.59-85.37 9.65-3.72 2.71-8.13 11.34-13.2 25.9"/><path d="m246.53 300.41c-33.51-1.52-55.5-2.62-65.96-3.3-15.7-1.01-79.78-5.59-85.37-9.65-3.72-2.71-8.13-11.34-13.2-25.9"/><path d="m143.98 81.14c-5.16 2.71-8.89 4.91-11.17 6.6-2.29 1.69-3.14 3.72-4.07 4.57-1.78 1.62-6.58 16.28-14.41 43.97-.34 1.18.14 2.45 1.19 3.11.51.33 1.78 1.14 3.83 2.44l58.91-11.68-61.7 15.75c-4.58-2.04-7.2-4.15-7.88-6.35-1.01-3.3 11.43-46.73 17.78-51.81 3.36-2.69 19.07-7.1 36.11-11.36 15.11-3.78 31.28-7.45 40.82-9.72 13.55-3.22 37.08-6.94 70.59-11.17"/><path d="m143.98 269.57c-5.16-2.71-8.89-4.91-11.17-6.61-2.29-1.69-3.14-3.72-4.07-4.57-1.78-1.62-6.58-16.27-14.41-43.96-.34-1.19.14-2.46 1.19-3.12.51-.33 1.78-1.14 3.83-2.44l58.91 11.68-61.7-15.74c-4.58 2.03-7.2 4.14-7.88 6.34-1.01 3.31 11.43 46.73 17.78 51.81 3.36 2.69 19.07 7.1 36.11 11.36 15.11 3.78 31.28 7.45 40.82 9.72 13.55 3.22 37.08 6.94 70.59 11.17"/><path d="m275.51 59.02-1.53-3.53-3.55-4.19-6.1-3.46"/><path d="m275.51 292.14-1.53 3.53-3.55 4.19-6.1 3.46"/><path d="m300.36 54.95c-9.63-.84-16.22-.84-19.77 0-5.34 1.27-16.76 19.3-26.67 43.68-9.9 24.38-16.31 57.11-15.99 77.33"/><path d="m300.36 296.96c-9.63.85-16.22.85-19.77 0-5.34-1.26-16.76-19.3-26.67-43.68-9.9-24.38-16.31-57.1-15.99-77.32"/><path d="m286.17 54.32c-10.47 13.49-20.31 30.85-27.68 50.92-7.36 20.06-12.75 50.5-12.95 70.72"/><path d="m286.17 297.6c-10.47-13.49-20.31-30.86-27.68-50.92-7.36-20.06-12.75-50.5-12.95-70.72"/><path d="m359.12 175.96c.01-21.9-1.49-31.83 4.9-68.59 3.23-18.59 4.68-27.35 4.36-26.28 1.3-4.3-1.43-8.78-5.86-9.57-5.06-.91-17.73-3.19-37.99-6.83l-34.98-5.67c-14.05 19.01-23.36 35.4-27.93 49.15-6.86 20.63-11.62 49.32-11.43 67.79"/><path d="m359.12 175.96c.01 21.9-1.49 31.83 4.9 68.59 3.23 18.59 4.68 27.35 4.36 26.28 1.3 4.3-1.43 8.78-5.86 9.57-5.06.91-17.73 3.19-37.99 6.83l-34.98 5.67c-14.05-19.01-23.36-35.4-27.93-49.15-6.86-20.63-11.62-49.32-11.43-67.79"/><path d="m362.93 175.96c0-10.9.95-36.22 6.91-75.95.85-5.67 2.12-11.82 3.8-18.47 1.52-5.97-2.1-12.03-8.07-13.53-2.15-.55-7.54-1.9-16.15-4.06l-49.06-8.46"/><path d="m362.93 175.96c0 10.9.95 36.22 6.91 75.95.85 5.67 2.12 11.82 3.8 18.47 1.52 5.97-2.1 12.03-8.07 13.53-2.15.54-7.54 1.9-16.15 4.06l-49.06 8.46"/><path d="m66.1 62.63c3.81 3.54 11.17-1.51 17.01-6.33 5.84-4.83 11.68-13.97 7.37-16.76-4.32-2.79-11.43 2.53-17.52 8.3-6.1 5.78-10.67 11.25-6.86 14.79z"/><path d="m66.1 289.08c3.81-3.54 11.17 1.5 17.01 6.33s11.68 13.97 7.37 16.76c-4.32 2.79-11.43-2.53-17.52-8.3-6.1-5.78-10.67-11.25-6.86-14.79z"/><path d="m68.48 59.14c-.21-.07-.35-.27-.35-.49 0-.45 0-1.48 0-1.94 0-.2.09-.38.24-.51 3.3-2.89 12.66-11.05 15.88-13.87.39-.34.94-.43 1.42-.23.66.27 1.62.66 2.22.91.53.22.71.89.35 1.35-1.59 1.99-5.61 7.05-7.19 9.04-.48.61-1.04 1.16-1.66 1.62-1.44 1.09-5.14 3.89-6.66 5.04-.33.25-.77.32-1.17.18-.68-.24-2.34-.83-3.08-1.1z"/><path d="m68.48 292.43c-.21.07-.35.27-.35.49v1.94c0 .19.09.38.24.51 3.3 2.88 12.66 11.05 15.88 13.86.39.34.94.44 1.42.24.66-.27 1.62-.67 2.22-.91.53-.22.71-.9.35-1.35-1.59-1.99-5.61-7.06-7.19-9.05-.48-.6-1.04-1.15-1.66-1.62-1.44-1.09-5.14-3.89-6.66-5.03-.33-.26-.77-.32-1.17-.18-.68.24-2.34.83-3.08 1.1z"/><path d="m45.98 100.69c5.48 1.01 15.23-6.09 21.13-15.43 5.89-9.35 1.82-19.3-3.05-20.52-4.88-1.22-11.33 7.67-15.85 16.66-4.52 8.98-7.72 18.28-2.23 19.29z"/><path d="m45.98 250.71c5.48-1.01 15.23 6.09 21.13 15.44 5.89 9.34 1.82 19.3-3.05 20.52-4.88 1.21-11.33-7.68-15.85-16.66-4.52-8.99-7.72-18.29-2.23-19.3z"/><path d="m47.2 96.61c5.08 1.83 14.22-6.9 17.06-13.41 2.85-6.5 2.24-13.4-1.83-15.44-2.71-1.35-6.84 2.85-12.39 12.61-5.28 9.61-6.23 15.02-2.84 16.24z"/><path d="m47.2 254.27c5.08-1.83 14.22 6.91 17.06 13.41 2.85 6.5 2.24 13.41-1.83 15.44-2.71 1.35-6.84-2.85-12.39-12.61-5.28-9.61-6.23-15.02-2.84-16.24z"/><path d="m37.58 175.96c1.2-15.58 1.84-28.25 1.91-38 .1-13.74 2.47-23.23-1.91-23.63-2.35-.22-5.29 1.65-8.82 5.6-1.09 1.22-1.74 2.75-1.88 4.38-.56 6.88-1.96 24.1-4.2 51.65"/><path d="m37.58 175.96c1.2 15.58 1.84 28.25 1.91 38 .1 13.74 2.47 23.23-1.91 23.63-2.35.22-5.29-1.65-8.82-5.61-1.09-1.21-1.74-2.74-1.88-4.37-.56-6.88-1.96-24.1-4.2-51.65"/><path d="m35.82 175.96.61-26.32c1.17-12.89 1.9-20.95 2.19-24.17.19-2.16.07-4.34-.36-6.46-.14-.66-.06-.28-.24-1.15-.19-.93-1.33-1.28-2.01-.62-1.03.99-2.06 1.98-2.97 2.85-1.41 1.36-2.24 3.22-2.31 5.17-.24 6.76-.85 23.66-1.81 50.7"/><path d="m35.82 175.96.61 26.32c1.17 12.89 1.9 20.95 2.19 24.17.19 2.16.07 4.34-.36 6.46-.14.66-.06.28-.24 1.15-.19.93-1.33 1.28-2.01.62-1.03-.99-2.06-1.98-2.97-2.86-1.41-1.35-2.24-3.21-2.31-5.17-.24-6.75-.85-23.65-1.81-50.69"/><path d="m237.92 175.96h-180.8"/><path d="m277.39 10.58 9.34 22.97 6.1 6.83 5.48 4.14"/><path d="m277.08 341.34 9.35-22.97 6.09-6.83 5.49-4.14"/><path d="m444.91 41.78 76.18 1.54c30.24.45 50.33 1.96 60.26 4.52 8.7 2.25 14.66 4.68 17.87 7.31.77.63.39 1.88-.6 1.97-41.84 3.89-67 5.84-75.5 5.84-13.2 0-77.87 1.02-109.02-.68-20.76-1.12-59.46-7.05-116.09-17.76"/><path d="m358.24 55.49-12.52-12.17"/><path d="m444.91 309.64 76.18-1.54c30.24-.45 50.33-1.96 60.26-4.52 8.7-2.25 14.66-4.68 17.87-7.31.77-.63.39-1.88-.6-1.97-41.84-3.89-67-5.84-75.5-5.84-13.2 0-77.87-1.02-109.02.67-20.76 1.13-59.46 7.05-116.09 17.77"/><path d="m358.24 295.23-12.52 12.17"/><path d="m503.14 43.32 19.98 19.94"/><path d="m503.14 308.87 19.98-19.94"/><path d="m756.09 325.22c-12.58 6.32-21.24 10.72-25.98 13.2-4.25 2.23-13.45 5.61-27.6 10.15-2.09.67-4.34.72-6.46.16-.56-.15-1.96-.53-4.2-1.12l-85.65-2.42c-20.52 0-33.34 0-38.47 0-3 0-5.98-.45-8.85-1.34-1.1-.34-.82-.25-2.1-.65-2.25-.7-4.59-1.05-6.94-1.05-18.08 0-63.28 0-135.6 0l-60.6-.81"/><path d="m756.09 25.9c-12.58-6.32-21.24-10.72-25.98-13.2-4.25-2.23-13.45-5.61-27.6-10.15-2.09-.67-4.34-.72-6.46-.16-.56.15-1.96.53-4.2 1.12l-85.65 2.42c-20.52 0-33.34 0-38.47 0-3 0-5.98.45-8.85 1.34-1.1.34-.82.25-2.1.65-2.25.7-4.59 1.05-6.94 1.05-18.08 0-63.28 0-135.6 0l-60.6.81"/><path d="m724.02 175.96c.29-16.59-.9-43.83-3.59-81.73-.47-6.55-5.73-11.74-12.29-12.12-25.87-1.49-85.67-4.92-109.95-6.32-10.54-.6-19.41 7.78-19.41 18.33v81.84"/><path d="m723.34 175.96c.3 16.59-.9 43.83-3.59 81.73-.46 6.55-5.72 11.74-12.28 12.12-25.88 1.48-85.67 4.92-109.96 6.32-10.53.6-19.41-7.78-19.41-18.33 0-10.91 0-38.19 0-81.84"/><path d="m61.37 297.6-45.03-16.61 36.23 3.25"/><path d="m61.43 54.32-45.03 16.61 36.23-3.25"/><path d="m328.25 20.01h-47.06"/><path d="m328.25 330.84-47.06-1.16"/><path d="m593.34 5.97-55.52 17.27-33.52-1.35-4.06-4.4-10.16-2.03-19.3 2.03-1.35 4.4-55.18-1.88h-64.67"/><path d="m593.34 345.08-55.52-17.27-33.52 1.36-4.06 4.4-10.16 2.03-19.3-2.03-1.35-4.4-55.18 1.88h-64.67"/><path d="m503.14 20.87-1.89 2.37h-7.11l-8.8 2.66-16.93-4.01"/><path d="m504.5 329.68-1.89-2.37h-7.11l-8.8-2.66-16.93 4.02"/><path d="m414.58 20.01v-11.33"/><path d="m414.58 342.21v-11.37"/><path d="m436.59 20.87 53.15-6.26 10.16-5.93"/><path d="m436.76 330.43 53.15 6.27 10.16 5.92"/><path d="m516.49 22.23 47.06-16.26-10.16 2.71h-10.16l-40.96 11.33"/><path d="m516.49 328.4 47.06 16.26-10.16-2.71h-10.16l-40.96-11.33"/><path d="m755.07 34.08-9.82-1.69 3.05 6.09c-37.69-8.35-66.47-13.77-86.33-16.25-19.87-2.49-55.08-4.07-105.63-4.74"/><path d="m755.07 317.32-9.82 1.69 3.05-6.09c-37.69 8.35-66.47 13.77-86.33 16.25-19.87 2.48-55.08 4.06-105.63 4.74"/><path d="m755.07 55.49-6.77-17.01"/><path d="m756.09 295.21-7.79 17.71"/><path d="m756.09 32.72c-10.39-7.67-18.74-12.75-25.06-15.23-6.32-2.49-17.6-6.32-33.85-11.52l-3.05-2.72"/><path d="m754.37 319.17c-10.39 7.68-18.74 12.76-25.06 15.24s-17.61 6.32-33.86 11.51l-3.05 2.73"/><path d="m755.07 80.37c-8.8-2.42-15.57-4.19-20.31-5.32s-9.71-1.69-14.9-1.69l-1.69 9.14c2.05 1.81 4.36 4.18 6.94 7.11 3.86 4.4 5.92 17.27 7.28 31.29.9 9.34 1.69 27.69 2.37 55.06"/><path d="m755.07 271.54c-8.8 2.42-15.57 4.2-20.31 5.33s-9.71 1.69-14.9 1.69l-1.69-9.14c2.05-1.81 4.36-4.18 6.94-7.11 3.86-4.4 5.92-17.27 7.28-31.29.9-9.34 1.69-27.7 2.37-55.06"/><path d="m779.78 99.43h-50.78"/><path d="m779.78 251.97h-50.78"/><path d="m781.31 95.71c1.96 0 3.55 1.58 3.55 3.54v1.04c0 1.95-1.59 3.54-3.55 3.54-3.28 0-9.59 0-12.88 0-1.96 0-3.54-1.59-3.54-3.54 0-.92 0-.12 0-1.04 0-1.96 1.58-3.54 3.54-3.54z"/><path d="m781.31 247.9c1.96 0 3.55 1.59 3.55 3.55v1.03c0 1.96-1.59 3.55-3.55 3.55-3.28 0-9.59 0-12.88 0-1.96 0-3.54-1.59-3.54-3.55 0-.91 0-.11 0-1.03 0-1.96 1.58-3.55 3.54-3.55z"/><path d="m742.54 175.96-2.03-30.82 13.88-1.01-17.77-1.36 1.52 33.19"/><path d="m742.54 175.96-2.03 30.82 13.88 1.01-17.77 1.36 1.52-33.19"/><path d="m723.38 86.9 23.22 3.05 9.49 4.06v-6.09c.67.67-.8.11-4.41-1.7-5.41-2.7-28.77-6.77-39.95-7.45-7.44-.45-14.44.09-20.99 1.6"/><path d="m722.93 264.15 23.22-3.04 9.49-4.07v6.1c.67-.68-.8-.11-4.41 1.69-5.41 2.71-28.77 6.77-39.95 7.45-7.44.45-14.44-.08-20.99-1.6"/></g></svg>