<svg height="171" preserveAspectRatio="xMidYMid meet" viewBox="0 0 820 234" width="600" xmlns="http://www.w3.org/2000/svg"><g fill="none"><g stroke="#000"><path d="m25.19 169.53 1-15.79-5-.2.8 15.99z"/><path d="m29.14 171.9 1.41-6.83 39.62-2.63 4.39 6.58 32.13-2.68c-.32-4.6.02-9.08 1.02-13.44 1.94-8.45 6.01-17.6 16.64-30.97 17.48-21.97 68.85-30.56 154.12-25.77l18.44-21.57c-14.93.82-25.55 1.23-31.86 1.23-9.47 0-65.87 7.11-86.2 9.77-20.34 2.65-65.3 10.33-77.4 13.48-12.1 3.16-32.35 2.34-48.98 19.27-11.09 11.28-20.45 29.14-28.06 53.56z"/><path d="m265.82 75.95 5.79-6.8c-7.33 0-12.12.07-14.39.2-3.4.2-24.79 4-28.38 4.4-3.6.4-42.78 4.39-49.77 5.79-4.67.94-22.06 3.2-52.18 6.8-33.18 7.06-52.3 11.19-57.36 12.39-7.6 1.8-17.19 7.6-26.59 13.8-6.26 4.13-11.84 17.8-16.75 41.01"/><path d="m40.34 113.82-2.59-2.79-6.4 14.19 1.2 4.4"/><path d="m38.15 104.63 3.99 4-2.2 4.59-2.39-2.19 1.19-2.2-4.39-2.2z"/><path d="m270.61 69.39 3.4-4.34-26.58.8-17.39 1.4c-75.69 9.73-115.67 14.86-119.94 15.39-6.39.8-45.97 10.8-50.97 12-3.33.79-10.29 3.93-20.88 9.39"/><path d="m229.84 67.25-46.38 11.39"/><path d="m123.3 86.84-20.39-2.8"/><path d="m136.69 84.94-18.19-3.7"/><path d="m571.48 205.89c-1.2-12.79-1.86-22.19-2-28.18-.2-9-1.25-22.1 8.4-38.54 9.64-16.44 32.93-31.68 56.57-30.78 23.63.9 42.12 12.84 53.87 29.73 5.22 7.52 8.68 20.29 8.53 30.92-.18 13.27-4.71 23.9-3.94 24.9.94 1.2 7.77 1.53 20.49 1 10.7-8 22.02-14.13 33.98-18.39 17.94-6.4 55.37-7 58.57-8.2 2.13-.8 2.13-4.85 0-12.17-2.53.2-4.73-.23-6.6-1.3-1.86-1.07-4.26-10.56-7.19-28.48l-2.2-4-1-5c-11.68-18.79-18.78-29.78-21.31-32.98-3.8-4.8-46.17-15.39-47.57-16.39-.94-.67-1.2-1.6-.8-2.8-90.66-22.32-137.52-34.94-140.58-37.88-4.6-4.39-2.07-6.74-4.07-10.14s-60.51-10.96-108.81-10.94c-34.3.01-58.36 1.79-84.35 6.99s-67.76 24.39-72.36 26.19c-3.06 1.2-20.25 9.79-51.57 25.78"/><path d="m29.48 171.93 4.75.72 3.25 22.99h-16.24v2h5.95l-4.24 10.24-20.95-.75v3.75h12.24l1.95 2.65 105.11-1c-2.62-9.37-4.72-18.61-6.28-27.7-1.11-6.46-1.21-10.92-1.52-18.18-1.1-26.23 26.87-60.96 62.85-60.47 14.15.19 32.35 4.7 44.61 16.04 7.32 6.77 13.11 16.08 17.37 27.92 1.19 3.33 1.87 6.82 2.01 10.35.72 18.06.65 29.03-.21 32.9-1 4.5-4.91 10.33-11.74 17.49l195.34-1.75 147.78-3.24"/><path d="m361.4 18.75 8.19 3c-8.53 3.46-15.12 6.26-19.79 8.39-4.66 2.14-13.66 6.87-26.98 14.2-12.2 8.45-21.4 13.85-27.59 16.19-4.93 1.86-12 3.37-21.22 4.52"/><path d="m322.62 43.94-14.59-4"/><path d="m369.59 16.75c4.53.93 6.8 2.73 6.8 5.4 0 1.73-2.27 3.2-6.8 4.4-4.82 1.78-8.86 3.44-12.1 4.98-16.42 7.8-24.65 12.54-27.87 14.21-5.8 2.99-26.99 15.99-34.39 18.59-4.93 1.73-13.13 3.34-24.62 4.82"/><path d="m240.47 167.87 32.58-.4c-.27-13.06-.27-23.72 0-31.99.26-8.26 1.6-21.32 4-39.17"/><path d="m267.37 167.43-1.6 14.85-4.06 11.57.8-25.98"/><path d="m264.54 186.02 1.43 3.59v4.24h9.2l-2.4-6.84.4-19.58"/><path d="m701.36 194.61c4.99-40.38-3.2-50.97-12.6-65.56-9.39-14.59-31.78-27.19-54.57-26.99-26.58.24-39.17 8.6-53.77 24.79-9.72 10.79-15.45 23.52-17.19 38.18l-82.58 4-214.08 7.99"/><path d="m247.26 208.6 1.4-12.39 3.2-2.36 244.3-2.84 23.19 14.88z"/><path d="m261.71 210.6c.13-.33.37-1 .74-2l-.74-14.75"/><path d="m277.05 100.26 193.17-4.59 1.44 3-195.73 5.36"/><path d="m332.49 74.59 173.11-2.31c1.59 2 3.33 5.13 5.19 9.4 1.87 4.26 2.47 8.92 1.8 13.99l-.6 4.18c-2 6.54-3.73 12.27-5.2 17.2-1.46 4.94-9.99 22.13-25.58 51.58-5.6 6.13-9.86 10.92-12.79 14.39-2.94 3.46-8.33 6.13-16.19 7.99"/><path d="m496.2 99.85c-1.33 2.94-4.93 4.48-10.79 4.61-5.87.14-9.2-1.4-10-4.61"/><path d="m495.6 94.47c-1.33-2.67-4.6-4-9.79-4-5.2 0-8.67 1.33-10.4 4"/><path d="m472.61 99.85h28.39l2-2.98-2-2h-28.39l-1.59 2.3z"/><path d="m501.8 98.67h42.77l-21.58-3h-21.19"/><path d="m563.27 165.07c.54 18.12.34 27.65-.6 28.58-.35.36-3.01-.08-9.15 0-9.82.13-27.23.13-52.21 0l46.97-4c-25.58-3.59-42.04-5.39-49.37-5.39s-18.59.4-33.78 1.2"/><path d="m569.07 176.4-83.26 1h-12.88"/><path d="m719.72 147.02c7.15-.71 13.5-1.24 19.03-1.61 13.89-.93 22-1.46 23.14-2.79 1.6-1.87 2.2-9.46 1.8-22.79-7.99-18.12-12.86-27.91-14.59-29.36-2.6-2.18-14.79-5.42-30.78-7.42-15.99-1.99-124.06.4-136.46 3.6-12.39 3.2-24.38 6.6-39.37 19.99-10 8.93-21.13 26.05-33.39 51.37"/><path d="m806.47 158.41-58.17.6c-10.66.13-17.99-1.2-21.99-4-3.99-2.8-8.53-10.26-13.59-22.38l79.16-5.8"/><path d="m746.7 130.83v2.2l-32.98 2.19"/><path d="m800.87 120.63-9.77 2.21-109.76 6.39"/><path d="m766.69 86.65c3.33.67 9.79 9.53 19.39 26.59l-.6 3c-.5.43-.82.7-.95.81-1.32 1.16-3.01 1.81-4.77 1.87-2.22.07-7.78.24-16.67.51l-4-1.2-3.39-3.19-9-16.37c-.93-1.48-1.13-3.36-.6-5.62.53-2.27 3.4-4.07 8.6-5.4 4.66-1.33 8.66-1.66 11.99-1z"/><path d="m791.88 126.83 4.79-2.8c-2.93-8.39-5.99-15.92-9.19-22.59-4.8-9.99-11-18.99-10.2-22.38.8-3.4 4.4-5.4 6.8-4s4.8 7.79 8.99 17.41c2.8 6.41 5.4 15.8 7.8 28.16"/><path d="m746.5 58.45 3.8 1.28 25.18 11.09h5.8l4.4 5.4"/><path d="m763.34 3.19c-.94.74-7.66.79-8.04 2.15-.27.95-.47 2.64-.6 5.06.26 17.45.46 27.18.6 29.18.2 3 4.34 4.42 6.74 5.62s16.51-1.12 27-2.65c10.5-1.52 24.35-4.07 25.95-5.27 1.06-.8 1.69-2.36 1.87-4.7.61-14.61.98-23.74 1.14-27.4.03-.86-.66-1.58-1.53-1.58-7.02 0-24.57 0-52.66 0l-.92-1.6c-2.52.24-4.09.38-4.72.44-1.11.11-2.21.32-3.29.63-5.88 1.71-10.08 3.88-12.58 6.5-2.53 2.65-6.13 18.18-10.81 45.82-.49 2.9-.99 5.69-1.5 8.36"/><path d="m746.05 68.39c1.75-35.77 3.21-54.4 4.37-55.9 1.17-1.49 2.54-1.99 4.13-1.49"/><path d="m775.66 71.01c-2.75 1.33-5.58 2.13-8.5 2.37-2.91.25-17.78-3.12-44.6-10.11l-2.62-2.13-.62 4"/><path d="m719.69 60.77 6.12-3.5 4.87 1.75"/><path d="m766.09 66.76-2.92 1.63-16.67-4.37"/><path d="m720.06 60.02c-91.2-23.16-137.63-35.23-139.29-36.23-2.5-1.5 0-10.12-2.63-10.37-1.75-.17-2.95 1.12-3.62 3.87"/><path d="m797.54 169.94c-4.39 20.12-7.95 30.98-10.66 32.58-1.64.97-12.72 1.45-33.23-.56-13.4-1.31-30.81-3.59-52.25-6.83"/><path d="m785.68 169.94c-4.88 17.86-7.99 27.65-9.32 29.39-1.34 1.73-3.2 2.79-5.6 3.19"/><path d="m76.63 195.73h-40.78"/><path d="m57.04 135.96c6.4-8.19 12.59-23.39 9.39-24.93-3.19-1.55-10.39 5.34-16.79 13.42-6.39 8.07-7.44 15.23-5.59 18.11s6.59 1.6 12.99-6.6z"/><path d="m68.3 130.76c4.6 2 8.13-1.79 14.72-6.79 6.6-5 10-11.4 6.6-15.64-3.4-4.25-13.08 3.87-18.79 9.24-4.58 4.31-7.13 11.2-2.53 13.19z"/><path d="m186.85 172.03c0 5.79-4.71 10.49-10.5 10.49s-10.49-4.7-10.49-10.49 4.7-10.49 10.49-10.49 10.5 4.7 10.5 10.49z"/><path d="m183.71 172.36c0 4.03-3.27 7.3-7.3 7.3s-7.29-3.27-7.29-7.3c0-4.02 3.26-7.29 7.29-7.29s7.3 3.27 7.3 7.29z"/></g><path d="m112.69 166.34h-6" stroke="#021706"/><path d="m232.11 171.9c0 31.17-25.31 56.47-56.47 56.47-31.17 0-56.47-25.3-56.47-56.47 0-31.16 25.3-56.46 56.47-56.46 31.16 0 56.47 25.3 56.47 56.46z" stroke="#000"/><path d="m221.04 171.9c0 25.38-20.6 45.98-45.97 45.98-25.38 0-45.98-20.6-45.98-45.98 0-25.37 20.6-45.97 45.98-45.97 25.37 0 45.97 20.6 45.97 45.97z" stroke="#000"/><path d="m235.78 172.03c0 33.1-26.87 59.97-59.97 59.97-33.09 0-59.96-26.87-59.96-59.97s26.87-59.96 59.96-59.96c33.1 0 59.97 26.86 59.97 59.96z" stroke="#000"/><path d="m127.95 207.75h-7.81" stroke="#021706"/><path d="m231.15 206.75h-6.25" stroke="#021706"/><path d="m336.09 58.83c4.49-2 10.74-2.41 18.74-1.25v10.75c-8.33 0-13.91.5-16.75 1.49-2.83 1-7.69 6.21-14.58 15.62l-11.4-.5c11.49-15.41 19.49-24.11 23.99-26.11z" stroke="#021706"/><path d="m505.7 72.28c37.98-1.64 61.3-3.31 69.96-5.01 12.99-2.55 27.23-13.69 25.48-22.68-1.74-9-40.22-15.99-77.2-22.24-36.98-6.24-79.17-4.75-109.9-3.6s-71.71 25.59-79.95 29.34c-5.5 2.5-18.23 11.33-38.18 26.5" stroke="#021706"/><path d="m319.68 74.59h-23.77" stroke="#021706"/><path d="m351.91 56.94 7.74-21.35" stroke="#021706"/><path d="m349.16 69.15-2.75 5.44" stroke="#021706"/><path d="m501.8 71.87 22.69-49.49" stroke="#021706"/><path d="m692.88 172.56c0 33.09-26.87 59.96-59.96 59.96-33.1 0-59.97-26.87-59.97-59.96 0-33.1 26.87-59.97 59.97-59.97 33.09 0 59.96 26.87 59.96 59.97z" stroke="#000"/><path d="m688.96 172.9c0 31.17-25.3 56.47-56.47 56.47s-56.47-25.3-56.47-56.47c0-31.16 25.3-56.46 56.47-56.46s56.47 25.3 56.47 56.46z" stroke="#000"/><path d="m679.75 172.8c0 25.38-20.6 45.98-45.97 45.98-25.38 0-45.98-20.6-45.98-45.98 0-25.37 20.6-45.97 45.98-45.97 25.37 0 45.97 20.6 45.97 45.97z" stroke="#000"/><path d="m643.35 172.56c0 5.79-4.7 10.49-10.49 10.49-5.8 0-10.5-4.7-10.5-10.49 0-5.8 4.7-10.5 10.5-10.5 5.79 0 10.49 4.7 10.49 10.5z" stroke="#000"/><path d="m640.45 172.9c0 4.03-3.27 7.3-7.3 7.3s-7.29-3.27-7.29-7.3c0-4.02 3.26-7.29 7.29-7.29s7.3 3.27 7.3 7.29z" stroke="#000"/><path d="m580.89 202.35h-9.71" stroke="#021706"/><path d="m694.11 194.61h-3.57l-1.58-1.68" stroke="#021706"/><path d="m114.97 212.03c-2.53-8.53-4.39-15.53-5.58-21.02-1.19-5.48-2.09-13.71-2.7-24.67" stroke="#021706"/><path d="m90.96 213.03-16.37-44.6" stroke="#021706"/><path d="m37.01 140.53-6.59 23.99" stroke="#021706"/></g></svg>